<?xml version="1.0" encoding="UTF-8" standalone="no"?>
<!DOCTYPE svg PUBLIC "-//W3C//DTD SVG 1.1//EN" "http://www.w3.org/Graphics/SVG/1.1/DTD/svg11.dtd">
<svg width="128" height="128" viewBox="0 0 296 296" version="1.1" xmlns="http://www.w3.org/2000/svg" xmlns:xlink="http://www.w3.org/1999/xlink" xml:space="preserve" xmlns:serif="http://www.serif.com/" style="fill-rule:evenodd;clip-rule:evenodd;stroke-linejoin:round;stroke-miterlimit:2;">
    <g transform="matrix(1,0,0,1,-2,-2)">
        <g transform="matrix(1.351598,0,0,1.351598,-29.086758,-22.328767)">
            <g>
                <g transform="matrix(-1.11537,-1.11537,0.948183,-0.948183,37.119922,318.730025)">
                    <path d="M43.5,45L68,94L19,94L43.5,45Z" style="fill:rgb(122,87,238);"/>
                </g>
                <circle cx="132.5" cy="127.5" r="109.5" style="fill:rgb(122,87,238);"/>
            </g>
            <g>
                <path d="M142.455,187.158L142.455,67.843C142.455,62.336 138.005,57.887 132.5,57.887C126.994,57.887 122.544,62.336 122.544,67.843L122.544,187.158C122.544,192.664 126.994,197.113 132.5,197.113C138.005,197.113 142.455,192.664 142.455,187.158Z" style="fill:white;"/>
                <path d="M202.114,137.456L202.114,117.545C202.114,112.039 197.664,107.589 192.158,107.589C186.652,107.589 182.203,112.039 182.203,117.545L182.203,137.456C182.203,142.961 186.652,147.411 192.158,147.411C197.664,147.411 202.114,142.961 202.114,137.456Z" style="fill:white;"/>
                <path d="M62.886,117.545L62.886,137.456C62.886,142.961 67.336,147.411 72.842,147.411C78.348,147.411 82.798,142.961 82.798,137.456L82.798,117.545C82.798,112.039 78.348,107.589 72.842,107.589C67.336,107.589 62.886,112.039 62.886,117.545Z" style="fill:white;"/>
                <path d="M112.588,157.291L112.588,97.634C112.588,92.128 108.138,87.678 102.633,87.678C97.127,87.678 92.677,92.128 92.677,97.634L92.677,157.291C92.677,162.798 97.127,167.247 102.633,167.247C108.138,167.247 112.588,162.798 112.588,157.291Z" style="fill:white;"/>
                <path d="M172.247,157.291L172.247,97.634C172.247,92.128 167.797,87.678 162.291,87.678C156.785,87.678 152.336,92.128 152.336,97.634L152.336,157.291C152.336,162.798 156.785,167.247 162.291,167.247C167.797,167.247 172.247,162.798 172.247,157.291Z" style="fill:white;"/>
            </g>
        </g>
    </g>
</svg>
